<?xml version="1.0" standalone="no"?>
<svg viewBox="0 0 300 300" xmlns="http://www.w3.org/2000/svg">
  <path fill="#FF0066" d="M40.3,-64.7C50.3,-56.2,55.3,-41.9,59,-28.5C62.8,-15.1,65.3,-2.7,63.5,9.1C61.8,20.8,55.6,31.8,48.7,45.2C41.8,58.5,34.1,74.2,22,80.2C9.9,86.1,-6.6,82.4,-22.4,77.4C-38.3,72.3,-53.4,65.9,-65.3,55C-77.2,44.2,-85.8,28.9,-86.2,13.6C-86.6,-1.7,-78.7,-17.1,-69.4,-29.3C-60.1,-41.6,-49.4,-50.8,-37.6,-58.5C-25.7,-66.2,-12.9,-72.4,1.1,-74.2C15.1,-75.9,30.2,-73.2,40.3,-64.7Z" transform="translate(100 100)" />
</svg>
