<?xml version="1.0" standalone="no"?>
<svg xmlns:xlink="http://www.w3.org/1999/xlink" id="wave" style="transform:rotate(180deg); transition: 0.3s" viewBox="0 0 1440 490" version="1.1" xmlns="http://www.w3.org/2000/svg"><defs><linearGradient id="sw-gradient-0" x1="0" x2="0" y1="1" y2="0"><stop stop-color="rgba(109, 95, 211, 1)" offset="0%"/><stop stop-color="rgba(204, 90, 163, 1)" offset="100%"/></linearGradient></defs><path style="transform:translate(0, 0px); opacity:1" fill="url(#sw-gradient-0)" d="M0,441L40,416.5C80,392,160,343,240,343C320,343,400,392,480,359.3C560,327,640,212,720,163.3C800,114,880,131,960,130.7C1040,131,1120,114,1200,163.3C1280,212,1360,327,1440,343C1520,359,1600,278,1680,253.2C1760,229,1840,261,1920,253.2C2000,245,2080,196,2160,220.5C2240,245,2320,343,2400,334.8C2480,327,2560,212,2640,147C2720,82,2800,65,2880,81.7C2960,98,3040,147,3120,171.5C3200,196,3280,196,3360,220.5C3440,245,3520,294,3600,334.8C3680,376,3760,408,3840,392C3920,376,4000,310,4080,261.3C4160,212,4240,180,4320,196C4400,212,4480,278,4560,302.2C4640,327,4720,310,4800,318.5C4880,327,4960,359,5040,367.5C5120,376,5200,359,5280,343C5360,327,5440,310,5520,269.5C5600,229,5680,163,5720,130.7L5760,98L5760,490L5720,490C5680,490,5600,490,5520,490C5440,490,5360,490,5280,490C5200,490,5120,490,5040,490C4960,490,4880,490,4800,490C4720,490,4640,490,4560,490C4480,490,4400,490,4320,490C4240,490,4160,490,4080,490C4000,490,3920,490,3840,490C3760,490,3680,490,3600,490C3520,490,3440,490,3360,490C3280,490,3200,490,3120,490C3040,490,2960,490,2880,490C2800,490,2720,490,2640,490C2560,490,2480,490,2400,490C2320,490,2240,490,2160,490C2080,490,2000,490,1920,490C1840,490,1760,490,1680,490C1600,490,1520,490,1440,490C1360,490,1280,490,1200,490C1120,490,1040,490,960,490C880,490,800,490,720,490C640,490,560,490,480,490C400,490,320,490,240,490C160,490,80,490,40,490L0,490Z"/><defs><linearGradient id="sw-gradient-1" x1="0" x2="0" y1="1" y2="0"><stop stop-color="rgba(204, 90, 163, 1)" offset="0%"/><stop stop-color="rgba(109, 95, 211, 1)" offset="100%"/></linearGradient></defs><path style="transform:translate(0, 50px); opacity:0.9" fill="url(#sw-gradient-1)" d="M0,98L40,106.2C80,114,160,131,240,147C320,163,400,180,480,196C560,212,640,229,720,204.2C800,180,880,114,960,73.5C1040,33,1120,16,1200,49C1280,82,1360,163,1440,196C1520,229,1600,212,1680,212.3C1760,212,1840,229,1920,261.3C2000,294,2080,343,2160,343C2240,343,2320,294,2400,285.8C2480,278,2560,310,2640,269.5C2720,229,2800,114,2880,106.2C2960,98,3040,196,3120,212.3C3200,229,3280,163,3360,130.7C3440,98,3520,98,3600,98C3680,98,3760,98,3840,138.8C3920,180,4000,261,4080,318.5C4160,376,4240,408,4320,416.5C4400,425,4480,408,4560,359.3C4640,310,4720,229,4800,163.3C4880,98,4960,49,5040,32.7C5120,16,5200,33,5280,49C5360,65,5440,82,5520,122.5C5600,163,5680,229,5720,261.3L5760,294L5760,490L5720,490C5680,490,5600,490,5520,490C5440,490,5360,490,5280,490C5200,490,5120,490,5040,490C4960,490,4880,490,4800,490C4720,490,4640,490,4560,490C4480,490,4400,490,4320,490C4240,490,4160,490,4080,490C4000,490,3920,490,3840,490C3760,490,3680,490,3600,490C3520,490,3440,490,3360,490C3280,490,3200,490,3120,490C3040,490,2960,490,2880,490C2800,490,2720,490,2640,490C2560,490,2480,490,2400,490C2320,490,2240,490,2160,490C2080,490,2000,490,1920,490C1840,490,1760,490,1680,490C1600,490,1520,490,1440,490C1360,490,1280,490,1200,490C1120,490,1040,490,960,490C880,490,800,490,720,490C640,490,560,490,480,490C400,490,320,490,240,490C160,490,80,490,40,490L0,490Z"/></svg>